<?xml version="1.0" encoding="UTF-8"?>
<svg width="60px" height="68px" viewBox="0 0 60 68" version="1.1" xmlns="http://www.w3.org/2000/svg" xmlns:xlink="http://www.w3.org/1999/xlink">
    <!-- Generator: Sketch 61.2 (89653) - https://sketch.com -->
    <title>Group 2</title>
    <desc>Created with Sketch.</desc>
    <g id="Symbols" stroke="none" stroke-width="1" fill="none" fill-rule="evenodd">
        <g id="Icon/Trash" transform="translate(-18.000000, -16.000000)" fill="#979797">
            <g id="Group-2" transform="translate(18.000000, 16.000000)">
                <path d="M54,16.5 L6,16.5 C5.17157288,16.5 4.5,17.1715729 4.5,18 L4.5,66 C4.5,66.8284271 5.17157288,67.5 6,67.5 L54,67.5 C54.8284271,67.5 55.5,66.8284271 55.5,66 L55.5,18 C55.5,17.1715729 54.8284271,16.5 54,16.5 Z M15.5,25.5 L22.5,25.5 L22.5,58.5 L15.5,58.5 L15.5,25.5 Z M44.5,25.5 L44.5,58.5 L37.5,58.5 L37.5,25.5 L44.5,25.5 Z" id="Combined-Shape" stroke="#979797"></path>
                <g id="Group">
                    <rect id="Rectangle" x="3.55271368e-15" y="4" width="60" height="8" rx="2"></rect>
                    <rect id="Rectangle" x="18" y="0" width="24" height="4"></rect>
                </g>
            </g>
        </g>
    </g>
</svg>